<svg xmlns="http://www.w3.org/2000/svg" viewBox="0 0 50 50">
  <path d="M2 2C0.894531 2 0 2.894531 0 4C0 5.105469 0.894531 6 2 6C3.105469 6 4 5.105469 4 4L8.65625 4C10.742188 4 11.542969 4.667969 12.21875 6.9375L20.21875 39.21875C20.644531 40.828125 21.125 42.609375 22.9375 43.46875C22.367188 44.160156 22 45.035156 22 46C22 48.207031 23.792969 50 26 50C28.207031 50 30 48.207031 30 46C30 45.269531 29.78125 44.589844 29.4375 44L35.5625 44C35.21875 44.589844 35 45.269531 35 46C35 48.207031 36.792969 50 39 50C41.207031 50 43 48.207031 43 46C43 44.960938 42.589844 44.023438 41.9375 43.3125C41.972656 43.210938 42 43.113281 42 43C42 42.449219 41.550781 42 41 42L25.71875 42C23.023438 42 22.730469 40.921875 22.15625 38.75L21.46875 36L39.8125 36C40.226563 36 40.605469 35.730469 40.75 35.34375L47.9375 16.34375C48.054688 16.039063 47.996094 15.707031 47.8125 15.4375C47.628906 15.167969 47.324219 15 47 15L16.28125 15L14.15625 6.40625C13.476563 4.117188 12.320313 2 8.65625 2 Z M 26 44C27.101563 44 28 44.898438 28 46C28 47.101563 27.101563 48 26 48C24.898438 48 24 47.101563 24 46C24 44.898438 24.898438 44 26 44 Z M 39 44C40.101563 44 41 44.898438 41 46C41 47.101563 40.101563 48 39 48C37.898438 48 37 47.101563 37 46C37 44.898438 37.898438 44 39 44Z" fill="#EBF0F7" />
</svg>